<svg id="visual" viewBox="0 0 1200 119" width="1200" height="119" xmlns="http://www.w3.org/2000/svg" xmlns:xlink="http://www.w3.org/1999/xlink" version="1.1"><path d="M0 50L22.2 48C44.3 46 88.7 42 133.2 45.5C177.7 49 222.3 60 266.8 62.7C311.3 65.3 355.7 59.7 400 54.5C444.3 49.3 488.7 44.7 533.2 43.5C577.7 42.3 622.3 44.7 666.8 50.8C711.3 57 755.7 67 800 66.7C844.3 66.3 888.7 55.7 933.2 52.8C977.7 50 1022.3 55 1066.8 53.2C1111.3 51.3 1155.7 42.7 1177.8 38.3L1200 34L1200 0L1177.8 0C1155.7 0 1111.3 0 1066.8 0C1022.3 0 977.7 0 933.2 0C888.7 0 844.3 0 800 0C755.7 0 711.3 0 666.8 0C622.3 0 577.7 0 533.2 0C488.7 0 444.3 0 400 0C355.7 0 311.3 0 266.8 0C222.3 0 177.7 0 133.2 0C88.7 0 44.3 0 22.2 0L0 0Z" fill="#0066FF" stroke-linecap="round" stroke-linejoin="miter"></path></svg>