<svg id="visual" viewBox="0 0 1200 119" width="1200" height="119" xmlns="http://www.w3.org/2000/svg" xmlns:xlink="http://www.w3.org/1999/xlink" version="1.1"><path d="M0 67L22.2 69C44.3 71 88.7 75 133.2 71.5C177.7 68 222.3 57 266.8 54.3C311.3 51.7 355.7 57.3 400 62.5C444.3 67.7 488.7 72.3 533.2 73.5C577.7 74.7 622.3 72.3 666.8 66.2C711.3 60 755.7 50 800 50.3C844.3 50.7 888.7 61.3 933.2 64.2C977.7 67 1022.3 62 1066.8 63.8C1111.3 65.7 1155.7 74.3 1177.8 78.7L1200 83L1200 120L1177.8 120C1155.7 120 1111.3 120 1066.8 120C1022.3 120 977.7 120 933.2 120C888.7 120 844.3 120 800 120C755.7 120 711.3 120 666.8 120C622.3 120 577.7 120 533.2 120C488.7 120 444.3 120 400 120C355.7 120 311.3 120 266.8 120C222.3 120 177.7 120 133.2 120C88.7 120 44.3 120 22.2 120L0 120Z" fill="#0066FF" stroke-linecap="round" stroke-linejoin="miter"></path></svg>